<?xml version="1.0" encoding="UTF-8" standalone="no"?>
<!DOCTYPE svg PUBLIC "-//W3C//DTD SVG 1.1//EN" "http://www.w3.org/Graphics/SVG/1.1/DTD/svg11.dtd">
<svg width="100%" height="100%" viewBox="0 0 800 800" version="1.1" xmlns="http://www.w3.org/2000/svg" xmlns:xlink="http://www.w3.org/1999/xlink" xml:space="preserve" xmlns:serif="http://www.serif.com/" style="fill-rule:evenodd;clip-rule:evenodd;stroke-linejoin:round;stroke-miterlimit:2;">
    <path d="M69.309,263.702L66.667,455.369C66.667,581.075 66.667,643.932 105.719,682.982C144.772,722.035 207.625,722.035 333.333,722.035L466.667,722.035C592.373,722.035 655.23,722.035 694.28,682.982C733.333,643.932 733.333,581.075 733.333,455.369C733.333,455.369 732.903,313.702 730.69,263.702C726.85,215.724 722.494,179.506 706.69,156.454C689.53,131.422 628.726,128.519 580.749,124.677L580.749,72.035C580.749,58.228 569.556,47.035 555.749,47.035C541.942,47.035 530.749,58.228 530.749,72.035L530.749,122.465C508.572,122.035 494.633,122.035 466.667,122.035L333.333,122.035C305.366,122.035 298.523,122.035 276.347,122.465L276.347,72.035C276.347,58.228 265.154,47.035 251.347,47.035C237.54,47.035 226.347,58.228 226.347,72.035L226.347,124.677C178.37,128.519 119.484,133.232 97.678,163.499C77.244,191.861 73.15,215.724 69.309,263.702ZM350.131,544.044C343.7,544.009 338.007,551.518 339.82,557.553C347.753,583.965 371.711,603.179 400,603.179C423.204,603.179 447.626,584.476 455.862,568.345C459.962,560.316 456.92,551.284 453.942,548.77C448.171,543.901 425.119,557.877 400,557.877C374.881,557.877 360.161,544.098 350.131,544.044ZM233.351,484.535C260.964,484.535 283.351,462.149 283.351,434.535C283.351,406.922 260.964,384.535 233.351,384.535C205.738,384.535 183.351,406.922 183.351,434.535C183.351,462.149 205.738,484.535 233.351,484.535ZM568.855,484.535C596.468,484.535 618.855,462.149 618.855,434.535C618.855,406.922 596.468,384.535 568.855,384.535C541.241,384.535 518.855,406.922 518.855,434.535C518.855,462.149 541.241,484.535 568.855,484.535Z" style="fill:rgb(75,162,178);"/>
    <path d="M357.281,122.035C329.313,122.035 426.956,129.072 378.979,125.23L378.979,72.588C378.979,58.781 367.786,47.588 353.979,47.588C340.172,47.588 328.979,58.781 328.979,72.588L328.979,123.018C306.802,122.588 357.281,122.035 357.281,122.035Z" style="fill:rgb(75,162,178);"/>
    <g transform="matrix(1,0,0,1,236.863,0)">
        <path d="M195.231,124.677C147.253,128.519 267.406,122.035 245.231,122.465L245.231,72.035C245.231,58.228 234.038,47.035 220.231,47.035C206.424,47.035 195.231,58.228 195.231,72.035L195.231,124.677Z" style="fill:rgb(75,162,178);"/>
    </g>
    <g transform="matrix(1,0,0,1,-69.2166,0)">
        <path d="M208.333,138.912C160.356,142.754 782.783,144.856 734.806,141.015L734.806,72.588C734.806,58.781 723.613,47.588 709.806,47.588C695.999,47.588 684.806,58.781 684.806,72.588L684.806,123.018C662.629,122.588 494.633,122.035 466.667,122.035L713.108,122.035C685.14,122.035 280.509,122.035 258.333,122.465L258.333,72.035C258.333,58.228 247.14,47.035 233.333,47.035C219.526,47.035 208.333,58.228 208.333,72.035L208.333,138.912Z" style="fill:rgb(75,162,178);"/>
    </g>
</svg>
