<?xml version="1.0" encoding="UTF-8" standalone="no"?>
<svg viewBox="0 0 128 128" xmlns="http://www.w3.org/2000/svg" fill-rule="evenodd" clip-rule="evenodd">
  <path
    d="M64 10c2 0 3.5 1 4.5 3l49.908 93.465c1.318 3.671-.641 6.954-3.715 7.557l-99.448.258c-3.108.078-5.653-3.34-4.233-7.45L59.5 13c1-2 2.5-3 4.5-3z"
    fill="none"
    stroke="#4ba2b2"
    stroke-width="8.43"
    transform="matrix(1 0 0 .89399 0 12.085)"
  />
  <g fill="#4ba2b2" fill-rule="nonzero">
    <path d="M71.642 74.921l2.624 10.896 14.226-3.429a5.6 5.6 0 004.134-6.758 5.603 5.603 0 00-6.76-4.137l-14.224 3.428zM51.846 91.22l8.485-2.045-2.625-10.896-8.484 2.044-2.473-10.26a1.572 1.572 0 00-1.895-1.16l-1.898.458a3.345 3.345 0 00-2.31 1.98l-4.594 11.174a3.35 3.35 0 00-.159 2.056l.176.726-.594.142a1.571 1.571 0 00-1.159 1.895l1.07 4.435a1.57 1.57 0 001.893 1.158l.594-.142 2.066 8.576a1.571 1.571 0 001.894 1.159l10.511-2.533a1.571 1.571 0 001.159-1.894l-1.657-6.874z" />
    <path d="M63.722 49.758a1.106 1.106 0 00-.818 1.336l1.455 6.046c.13.531.03 1.065-.234 1.496a1.968 1.968 0 01-1.226.89l-4.425 1.066a1.96 1.96 0 01-1.495-.235 1.973 1.973 0 01-.892-1.224l-1.456-6.047a1.107 1.107 0 00-1.336-.817 5.179 5.179 0 00-3.956 5.38l.193 2.919a9.083 9.083 0 003.918 6.887l4.362 3 8.32 34.523a5.229 5.229 0 009.546 1.504 5.214 5.214 0 00.623-3.954l-8.318-34.526 2.516-4.655a9.082 9.082 0 00.351-7.915l-1.158-2.688a5.18 5.18 0 00-5.97-2.986zM73 104.541a2.218 2.218 0 11-3.784-2.315A2.218 2.218 0 0173 104.54z" />
  </g>
</svg>
